<svg width="246" height="51" viewBox="0 0 246 51" fill="none" xmlns="http://www.w3.org/2000/svg">
<path fill-rule="evenodd" clip-rule="evenodd" d="M62.595 0.240662C63.1473 0.240662 63.595 0.688377 63.595 1.24066L63.595 48.2176C63.595 48.7699 63.1473 49.2176 62.595 49.2176C62.0427 49.2176 61.595 48.7699 61.595 48.2176L61.595 1.24066C61.595 0.688377 62.0427 0.240662 62.595 0.240662Z" fill="white"/>
<path d="M6.59323 46.0954C3.45642 45.4963 1.02889 43.2396 0.219715 40.1542L-6.10352e-05 39.3055V26.175V13.0445L0.229705 12.2457C1.03888 9.4299 3.01687 7.40292 5.79405 6.53421L6.69313 6.25463L19.4302 6.22467C28.2013 6.2047 32.427 6.22467 32.9964 6.30455C35.8335 6.674 38.291 8.57118 39.3999 11.2372C40.0292 12.755 40.0192 12.4354 39.9893 26.6343C39.9493 41.1427 40.0192 39.9146 39.1601 41.7019C38.3709 43.3295 37.1022 44.6076 35.4639 45.3964C33.6757 46.2551 34.9144 46.1852 20.2793 46.2152C9.78998 46.2252 7.16265 46.2052 6.59323 46.0954ZM21.6879 27.8725C33.2162 16.2597 35.8535 13.5538 35.8335 13.3641C35.8135 13.2442 35.7036 12.9247 35.5837 12.6651L35.384 12.1758L20.6689 26.8839L5.94389 41.6021L6.22361 41.7418C6.50332 41.8916 7.2126 42.1313 7.40241 42.1413C7.46235 42.1512 13.8858 35.7208 21.6879 27.8725ZM24.2353 31.4571L35.8635 20.763L35.8934 18.6063L35.9134 16.4395L24.8047 27.6228C18.6909 33.7837 12.9468 39.5651 12.0377 40.4837L10.3994 42.1512H11.4982H12.6071L24.2353 31.4571ZM29.0904 34.8122L35.9134 27.533V25.5559C35.9134 24.4675 35.8934 23.5789 35.8635 23.5789C35.8335 23.5789 31.3081 27.7227 25.7937 32.7852C20.2893 37.8377 15.7439 42.0214 15.684 42.0714C15.634 42.1113 17.0726 42.1413 18.9307 42.1313L22.2673 42.1013L29.0904 34.8122ZM33.6158 41.7918C34.5648 41.3325 35.0443 40.8632 35.4839 39.9845L35.8635 39.2156L35.8934 34.8721L35.9234 30.5185L35.5338 30.9179C35.314 31.1376 33.1462 33.4542 30.7187 36.0603C28.2812 38.6664 25.9935 41.1128 25.6339 41.4822L24.9745 42.1612L28.9705 42.1313L32.9664 42.1013L33.6158 41.7918ZM6.02381 38.6265L7.46235 37.1886L5.77407 35.6509L4.09577 34.1132L4.0658 34.6624C4.04582 34.9619 4.04582 36.1102 4.0658 37.2086C4.09577 38.8761 4.13573 39.2755 4.28558 39.635C4.38548 39.8646 4.49537 40.0544 4.53533 40.0544C4.5653 40.0544 5.2446 39.4053 6.02381 38.6265ZM10.9588 33.554C10.8989 33.5041 4.50536 28.4916 4.17569 28.2419C4.07579 28.172 4.04582 28.4816 4.04582 29.7397V31.3373L6.47336 33.544L8.8909 35.7408L9.95981 34.6823C10.5492 34.1032 10.9988 33.594 10.9588 33.554ZM13.2764 29.9494C12.8868 29.55 10.709 27.3133 8.44135 24.9768C6.17366 22.6403 4.25561 20.6632 4.17569 20.5833C4.0658 20.4635 4.04582 20.8629 4.04582 22.9897V25.536L8.27153 28.851L12.4872 32.1661L13.2365 31.4172L13.9857 30.6683L13.2764 29.9494ZM16.4632 28.192L17.4422 27.2135L13.4163 23.4191C11.2085 21.3422 8.19161 18.4964 6.7231 17.1085L4.04582 14.5822V16.07V17.5478L9.71006 23.3592C12.8169 26.5544 15.3943 29.1705 15.4243 29.1705C15.4642 29.1705 15.9237 28.7312 16.4632 28.192ZM19.57 25.0866L20.2493 24.4076L13.0367 17.6477L5.83401 10.8977L5.48436 11.1573C5.29455 11.3071 5.00485 11.6067 4.84501 11.8263L4.54532 12.2357L4.91494 12.6152C5.19466 12.8848 18.8608 25.7656 18.8807 25.7756C18.8807 25.7756 19.1904 25.4661 19.57 25.0866ZM22.8967 21.482C22.8267 21.3921 20.5091 18.8459 17.7419 15.8104L12.717 10.2986H10.4593H8.19161L8.4913 10.5982C8.66113 10.7579 11.6881 13.6037 15.2344 16.9288L21.6779 22.9698L22.3472 22.3107C22.9166 21.7516 22.9966 21.6218 22.8967 21.482ZM27.0025 17.5678C26.9825 17.5279 25.2642 15.8803 23.1764 13.9033L19.3802 10.3086L17.4522 10.2986H15.5142L15.8039 10.6381C15.9537 10.8278 17.9717 13.0545 20.2793 15.5808L24.475 20.1739L25.7537 18.9058C26.453 18.2069 27.0125 17.6077 27.0025 17.5678ZM31.2182 13.4439C34.1152 10.5482 34.0054 10.728 33.0663 10.4484C32.6367 10.3186 31.7576 10.2986 27.462 10.3186L22.3672 10.3485L25.4041 13.2243C27.0724 14.8019 28.471 16.09 28.501 16.09C28.5409 16.09 29.7597 14.9018 31.2182 13.4439Z" fill="white"/>
<path d="M110.705 31.4281C110.825 31.4041 111.005 31.3921 111.245 31.3921C112.133 31.3921 112.577 31.9081 112.577 32.9401C112.577 33.5161 112.445 34.0081 112.181 34.4161C111.941 34.8001 111.557 35.0401 111.029 35.1361C108.029 35.7361 105.893 36.1921 104.621 36.5041C104.573 36.6961 104.525 36.9841 104.477 37.3681C103.805 41.8321 102.461 45.1801 100.445 47.4121C98.4292 49.6441 95.9332 50.7601 92.9572 50.7601C90.9412 50.7601 89.3932 50.2441 88.3132 49.2121C87.2332 48.1801 86.6932 46.8121 86.6932 45.1081C86.6932 42.7081 87.8452 40.5481 90.1492 38.6281C92.4772 36.6841 95.8972 35.0401 100.409 33.6961C100.529 33.0241 100.769 31.3921 101.129 28.8001C101.225 28.2241 101.381 27.1801 101.597 25.6681C100.469 28.1401 99.0532 30.0001 97.3492 31.2481C95.6452 32.4721 93.7252 33.0841 91.5892 33.0841C89.5492 33.0841 88.0132 32.4601 86.9812 31.2121C85.9492 29.9641 85.4332 28.3321 85.4332 26.3161C85.4332 25.5961 85.5052 24.9121 85.6492 24.2641C85.7932 23.6161 85.9972 22.8481 86.2612 21.9601C86.5732 20.9041 86.8012 20.0401 86.9452 19.3681C87.0892 18.6961 87.1612 17.9521 87.1612 17.1361C87.1612 15.9841 86.7292 15.4081 85.8652 15.4081C85.3132 15.4081 84.6892 15.6241 83.9932 16.0561C83.3212 16.4641 82.6132 17.0401 81.8692 17.7841C81.4612 18.1921 81.0652 18.3961 80.6812 18.3961C80.3212 18.3961 80.0212 18.2521 79.7812 17.9641C79.5652 17.6761 79.4572 17.3161 79.4572 16.8841C79.4572 15.9961 79.8052 15.1561 80.5012 14.3641C81.3892 13.3801 82.4572 12.6001 83.7052 12.0241C84.9532 11.4241 86.2492 11.1241 87.5932 11.1241C89.0572 11.1241 90.1972 11.5681 91.0132 12.4561C91.8532 13.3441 92.2732 14.6521 92.2732 16.3801C92.2732 17.3161 92.1892 18.1921 92.0212 19.0081C91.8532 19.8241 91.6132 20.7601 91.3012 21.8161C91.0372 22.8001 90.8452 23.5561 90.7252 24.0841C90.6292 24.6121 90.5812 25.1401 90.5812 25.6681C90.5812 26.7721 90.7732 27.5521 91.1572 28.0081C91.5412 28.4401 92.2612 28.6561 93.3172 28.6561C94.5412 28.6561 95.8372 28.0321 97.2052 26.7841C98.5732 25.5121 99.7852 23.7601 100.841 21.5281C101.897 19.2961 102.605 16.8001 102.965 14.0401C103.109 12.9601 103.385 12.2041 103.793 11.7721C104.225 11.3401 104.849 11.1241 105.665 11.1241C107.345 11.1241 108.185 11.9641 108.185 13.6441C108.185 13.9321 108.173 14.1601 108.149 14.3281C107.837 16.5601 107.441 19.0441 106.961 21.7801C106.385 25.2361 105.809 28.7881 105.233 32.4361C106.769 32.1241 108.593 31.7881 110.705 31.4281ZM99.7972 37.8361C96.8452 38.7481 94.6492 39.7561 93.2092 40.8601C91.7932 41.9641 91.0852 43.2241 91.0852 44.6401C91.0852 45.3121 91.3012 45.8881 91.7332 46.3681C92.1652 46.8481 92.7532 47.0881 93.4972 47.0881C95.0332 47.0881 96.3412 46.3681 97.4212 44.9281C98.5252 43.4881 99.3052 41.2321 99.7612 38.1601L99.7972 37.8361ZM145.237 33.6241C145.549 33.6241 145.789 33.7681 145.957 34.0561C146.149 34.3441 146.245 34.7401 146.245 35.2441C146.245 36.1801 146.017 36.9241 145.561 37.4761C144.409 38.8681 143.245 39.9481 142.069 40.7161C140.893 41.4601 139.501 41.8321 137.893 41.8321C136.117 41.8321 134.665 41.3161 133.537 40.2841C132.409 39.2281 131.353 37.5961 130.369 35.3881C129.649 33.8041 129.049 32.6281 128.569 31.8601C128.113 31.0681 127.657 30.5161 127.201 30.2041C126.745 29.8681 126.169 29.6641 125.473 29.5921L125.077 32.2561C124.573 35.6881 123.589 38.1601 122.125 39.6721C120.685 41.1841 118.693 41.9401 116.149 41.9401C114.493 41.9401 113.017 41.5441 111.721 40.7521C110.449 39.9361 109.561 38.9041 109.057 37.6561C108.889 37.2241 108.805 36.7561 108.805 36.2521C108.805 35.5321 108.973 34.9081 109.309 34.3801C109.645 33.8521 110.077 33.5881 110.605 33.5881C110.917 33.5881 111.181 33.6721 111.397 33.8401C111.613 33.9841 111.817 34.2481 112.009 34.6321C112.753 36.0241 113.401 36.9961 113.953 37.5481C114.529 38.1001 115.237 38.3761 116.077 38.3761C117.037 38.3761 117.853 37.9441 118.525 37.0801C119.221 36.1921 119.713 34.8361 120.001 33.0121L120.505 29.5921H119.929C119.377 29.5921 118.945 29.4361 118.633 29.1241C118.321 28.8121 118.165 28.3801 118.165 27.8281C118.165 27.2041 118.321 26.7121 118.633 26.3521C118.969 25.9681 119.377 25.7761 119.857 25.7761H121.045C121.213 24.6001 121.333 23.7841 121.405 23.3281L122.521 15.2281C121.897 15.1561 121.309 15.1201 120.757 15.1201C118.717 15.1201 117.169 15.4801 116.113 16.2001C115.057 16.8961 114.529 17.9041 114.529 19.2241C114.529 19.8241 114.589 20.3161 114.709 20.7001C114.853 21.0601 115.033 21.4681 115.249 21.9241C115.345 22.1161 115.393 22.3321 115.393 22.5721C115.393 23.1001 115.141 23.5681 114.637 23.9761C114.157 24.3601 113.617 24.5521 113.017 24.5521C112.249 24.5521 111.685 24.2161 111.325 23.5441C110.605 22.2721 110.245 20.9041 110.245 19.4401C110.245 17.9281 110.653 16.5481 111.469 15.3001C112.309 14.0521 113.569 13.0561 115.249 12.3121C116.929 11.5441 119.005 11.1601 121.477 11.1601C122.557 11.1601 123.541 11.2201 124.429 11.3401C125.341 11.4601 126.337 11.6881 127.417 12.0241C128.593 12.3841 129.181 13.0561 129.181 14.0401C129.181 15.3601 128.617 16.0201 127.489 16.0201L126.085 25.7041C128.893 25.4161 131.173 24.2161 132.925 22.1041C134.701 19.9681 136.177 17.0761 137.353 13.4281C137.569 12.7561 137.929 12.2401 138.433 11.8801C138.961 11.5201 139.621 11.3401 140.413 11.3401C141.085 11.3401 141.601 11.4961 141.961 11.8081C142.345 12.0961 142.537 12.5161 142.537 13.0681C142.537 13.2361 142.489 13.5121 142.393 13.8961C141.193 17.8561 139.477 21.0001 137.245 23.3281C135.013 25.6561 132.577 27.2041 129.937 27.9721C130.849 28.1881 131.593 28.5121 132.169 28.9441C132.769 29.3761 133.273 29.9161 133.681 30.5641C134.089 31.1881 134.557 32.0641 135.085 33.1921C135.829 34.7761 136.525 35.9041 137.173 36.5761C137.821 37.2241 138.577 37.5481 139.441 37.5481C140.209 37.5481 140.941 37.2961 141.637 36.7921C142.333 36.2641 143.209 35.3761 144.265 34.1281C144.553 33.7921 144.877 33.6241 145.237 33.6241ZM182.359 18.6121C182.359 20.6521 181.639 22.4161 180.199 23.9041C178.759 25.3681 176.659 26.4241 173.899 27.0721C175.387 27.4801 176.515 28.1521 177.283 29.0881C178.051 30.0001 178.435 31.0561 178.435 32.2561C178.435 34.1521 177.835 35.7961 176.635 37.1881C175.459 38.5801 173.731 39.6601 171.451 40.4281C169.171 41.1721 166.423 41.5441 163.207 41.5441C162.007 41.5441 161.047 41.5081 160.327 41.4361C160.303 42.1081 160.015 42.6121 159.463 42.9481C158.911 43.2841 158.203 43.4521 157.339 43.4521C156.475 43.4521 155.875 43.2601 155.539 42.8761C155.227 42.4921 155.095 41.9281 155.143 41.1841C155.359 37.8241 155.779 34.3081 156.403 30.6361C157.027 26.9401 157.819 23.3761 158.779 19.9441C158.947 19.3441 159.283 18.9241 159.787 18.6841C160.291 18.4441 160.951 18.3241 161.767 18.3241C163.231 18.3241 163.963 18.7321 163.963 19.5481C163.963 19.8841 163.891 20.2681 163.747 20.7001C163.123 22.5721 162.499 25.1161 161.875 28.3321C161.251 31.5241 160.807 34.5721 160.543 37.4761C161.695 37.5721 162.631 37.6201 163.351 37.6201C166.711 37.6201 169.171 37.1401 170.731 36.1801C172.315 35.1961 173.107 33.9481 173.107 32.4361C173.107 31.3801 172.651 30.4921 171.739 29.7721C170.851 29.0521 169.351 28.6561 167.239 28.5841C166.759 28.5601 166.423 28.4401 166.231 28.2241C166.039 28.0081 165.943 27.6601 165.943 27.1801C165.943 26.4841 166.087 25.9201 166.375 25.4881C166.663 25.0561 167.191 24.8281 167.959 24.8041C169.663 24.7561 171.199 24.5041 172.567 24.0481C173.959 23.5921 175.051 22.9561 175.843 22.1401C176.635 21.3001 177.031 20.3281 177.031 19.2241C177.031 17.8321 176.347 16.7401 174.979 15.9481C173.611 15.1321 171.511 14.7241 168.679 14.7241C166.111 14.7241 163.627 15.0601 161.227 15.7321C158.827 16.3801 156.787 17.2081 155.107 18.2161C154.339 18.6721 153.691 18.9001 153.163 18.9001C152.731 18.9001 152.395 18.7561 152.155 18.4681C151.939 18.1561 151.831 17.7721 151.831 17.3161C151.831 16.7161 151.951 16.2001 152.191 15.7681C152.455 15.3361 153.067 14.8441 154.027 14.2921C156.043 13.1401 158.407 12.2401 161.119 11.5921C163.831 10.9441 166.603 10.6201 169.435 10.6201C173.779 10.6201 177.019 11.3521 179.155 12.8161C181.291 14.2801 182.359 16.2121 182.359 18.6121ZM197.407 33.6241C197.719 33.6241 197.959 33.7681 198.127 34.0561C198.319 34.3441 198.415 34.7401 198.415 35.2441C198.415 36.2041 198.187 36.9481 197.731 37.4761C196.843 38.5561 195.583 39.5521 193.951 40.4641C192.343 41.3761 190.615 41.8321 188.767 41.8321C186.247 41.8321 184.291 41.1481 182.899 39.7801C181.507 38.4121 180.811 36.5401 180.811 34.1641C180.811 32.5081 181.159 30.9721 181.855 29.5561C182.551 28.1161 183.511 26.9761 184.735 26.1361C185.983 25.2961 187.387 24.8761 188.947 24.8761C190.339 24.8761 191.455 25.2961 192.295 26.1361C193.135 26.9521 193.555 28.0681 193.555 29.4841C193.555 31.1401 192.955 32.5681 191.755 33.7681C190.579 34.9441 188.575 35.8801 185.743 36.5761C186.343 37.6801 187.483 38.2321 189.163 38.2321C190.243 38.2321 191.467 37.8601 192.835 37.1161C194.227 36.3481 195.427 35.3521 196.435 34.1281C196.723 33.7921 197.047 33.6241 197.407 33.6241ZM188.335 28.4041C187.447 28.4041 186.691 28.9201 186.067 29.9521C185.467 30.9841 185.167 32.2321 185.167 33.6961V33.7681C186.583 33.4321 187.699 32.9281 188.515 32.2561C189.331 31.5841 189.739 30.8041 189.739 29.9161C189.739 29.4601 189.607 29.1001 189.343 28.8361C189.103 28.5481 188.767 28.4041 188.335 28.4041ZM202.36 41.8321C200.008 41.8321 198.172 41.1721 196.852 39.8521C195.556 38.5081 194.908 36.7441 194.908 34.5601C194.908 32.6161 195.292 30.9121 196.06 29.4481C196.828 27.9841 197.824 26.8561 199.048 26.0641C200.272 25.2721 201.556 24.8761 202.9 24.8761C204.22 24.8761 205.24 25.2721 205.96 26.0641C206.704 26.8321 207.076 27.8281 207.076 29.0521C207.076 30.0601 206.848 30.9121 206.392 31.6081C205.96 32.3041 205.384 32.6521 204.664 32.6521C204.208 32.6521 203.836 32.5441 203.548 32.3281C203.284 32.1121 203.152 31.8121 203.152 31.4281C203.152 31.2601 203.176 31.0681 203.224 30.8521C203.272 30.6361 203.308 30.4801 203.332 30.3841C203.452 30.0241 203.512 29.6881 203.512 29.3761C203.512 29.0641 203.428 28.8241 203.26 28.6561C203.116 28.4881 202.9 28.4041 202.612 28.4041C202.06 28.4041 201.544 28.6561 201.064 29.1601C200.584 29.6401 200.2 30.3001 199.912 31.1401C199.624 31.9801 199.48 32.9041 199.48 33.9121C199.48 36.6961 200.692 38.0881 203.116 38.0881C204.1 38.0881 205.156 37.7641 206.284 37.1161C207.436 36.4441 208.564 35.4481 209.668 34.1281C209.956 33.7921 210.28 33.6241 210.64 33.6241C210.952 33.6241 211.192 33.7681 211.36 34.0561C211.552 34.3441 211.648 34.7401 211.648 35.2441C211.648 36.1561 211.42 36.9001 210.964 37.4761C209.836 38.8681 208.48 39.9481 206.896 40.7161C205.336 41.4601 203.824 41.8321 202.36 41.8321ZM227.746 33.6241C228.058 33.6241 228.298 33.7681 228.466 34.0561C228.658 34.3441 228.754 34.7401 228.754 35.2441C228.754 36.2041 228.526 36.9481 228.07 37.4761C226.966 38.7481 225.826 39.7921 224.65 40.6081C223.498 41.4241 222.178 41.8321 220.69 41.8321C219.442 41.8321 218.566 41.4481 218.062 40.6801C217.558 39.9121 217.306 38.7601 217.306 37.2241C217.306 36.5761 217.366 35.7961 217.486 34.8841C215.374 34.8841 213.91 34.8601 213.094 34.8121C213.046 35.4841 213.022 35.9521 213.022 36.2161V36.9721C212.998 38.4601 212.962 39.5041 212.914 40.1041C212.866 40.7041 212.722 41.1481 212.482 41.4361C212.242 41.7001 211.846 41.8321 211.294 41.8321C210.382 41.8321 209.734 41.3521 209.35 40.3921C208.99 39.4321 208.81 37.8961 208.81 35.7841C208.81 32.6641 209.254 29.7001 210.142 26.8921C210.358 26.1961 210.706 25.6921 211.186 25.3801C211.666 25.0441 212.362 24.8761 213.274 24.8761C213.754 24.8761 214.09 24.9361 214.282 25.0561C214.474 25.1761 214.57 25.4041 214.57 25.7401C214.57 26.1241 214.39 26.9881 214.03 28.3321C213.838 29.1241 213.658 30.0841 213.49 31.2121H218.098C218.338 30.0841 218.686 28.6441 219.142 26.8921C219.334 26.1721 219.622 25.6561 220.006 25.3441C220.414 25.0321 221.014 24.8761 221.806 24.8761C222.358 24.8761 222.742 24.9481 222.958 25.0921C223.174 25.2121 223.282 25.4521 223.282 25.8121C223.282 26.4121 222.982 28.0561 222.382 30.7441C221.71 33.8161 221.374 35.7121 221.374 36.4321C221.374 36.8881 221.47 37.2481 221.662 37.5121C221.854 37.7521 222.106 37.8721 222.418 37.8721C222.898 37.8721 223.462 37.5841 224.11 37.0081C224.782 36.4081 225.67 35.4481 226.774 34.1281C227.062 33.7921 227.386 33.6241 227.746 33.6241ZM230.252 41.8321C228.764 41.8321 227.576 41.2921 226.688 40.2121C225.8 39.1321 225.356 37.7161 225.356 35.9641C225.356 34.0441 225.8 32.2321 226.688 30.5281C227.576 28.8001 228.752 27.4201 230.216 26.3881C231.704 25.3321 233.276 24.8041 234.932 24.8041C235.46 24.8041 235.808 24.9121 235.976 25.1281C236.168 25.3201 236.324 25.6801 236.444 26.2081C236.948 26.1121 237.476 26.0641 238.028 26.0641C239.204 26.0641 239.792 26.4841 239.792 27.3241C239.792 27.8281 239.612 29.0281 239.252 30.9241C238.7 33.6841 238.424 35.6041 238.424 36.6841C238.424 37.0441 238.508 37.3321 238.676 37.5481C238.868 37.7641 239.108 37.8721 239.396 37.8721C239.852 37.8721 240.404 37.5841 241.052 37.0081C241.7 36.4081 242.576 35.4481 243.68 34.1281C243.968 33.7921 244.292 33.6241 244.652 33.6241C244.964 33.6241 245.204 33.7681 245.372 34.0561C245.564 34.3441 245.66 34.7401 245.66 35.2441C245.66 36.2041 245.432 36.9481 244.976 37.4761C243.992 38.7001 242.948 39.7321 241.844 40.5721C240.74 41.4121 239.672 41.8321 238.64 41.8321C237.848 41.8321 237.116 41.5681 236.444 41.0401C235.796 40.4881 235.304 39.7441 234.968 38.8081C233.72 40.8241 232.148 41.8321 230.252 41.8321ZM231.548 38.1961C232.076 38.1961 232.58 37.8841 233.06 37.2601C233.54 36.6361 233.888 35.8081 234.104 34.7761L235.436 28.1521C234.428 28.1761 233.492 28.5601 232.628 29.3041C231.788 30.0241 231.116 30.9841 230.612 32.1841C230.108 33.3841 229.856 34.6561 229.856 36.0001C229.856 36.7441 230 37.2961 230.288 37.6561C230.6 38.0161 231.02 38.1961 231.548 38.1961Z" fill="white"/>
</svg>
